<svg width="13" height="30" viewBox="0 0 13 30" fill="none" xmlns="http://www.w3.org/2000/svg">
<path d="M5.3455 16.6569L4.87105 16.562C2.40389 16.056 0.759125 13.6204 1.23358 11.1533L2.49878 4.73235C2.97324 2.23357 5.40876 0.5888 7.90754 1.09488L8.382 1.18977C10.8808 1.66423 12.5255 4.09975 12.0195 6.59853L10.7543 13.0195C10.2798 15.4866 7.84428 17.1314 5.3455 16.6569Z" stroke="black" stroke-miterlimit="10"/>
<path d="M3.82729 10.6156C2.72023 10.2676 1.89785 9.82481 1.64481 9.35036C1.58155 9.44525 1.54992 9.54014 1.51829 9.63503C1.45503 10.2044 2.34067 10.8053 3.70077 11.2482L3.82729 10.6156Z" fill="#265B91"/>
<path d="M11.1654 10.3309C10.6593 11.0268 8.63496 11.3431 6.2627 11.09C5.78824 11.0268 5.34542 10.9635 4.9026 10.8686L4.80771 11.5012C5.25053 11.5961 5.72498 11.6594 6.23107 11.7226C8.91963 12.0073 11.1654 11.5645 11.2603 10.6788C11.2603 10.5839 11.2286 10.4574 11.1654 10.3309Z" fill="#265B91"/>
<path d="M11.3868 9.16058C10.8807 9.85645 8.85639 10.1727 6.48413 9.91971C6.00968 9.85645 5.53523 9.79319 5.0924 9.6983L4.99751 10.3309C5.44034 10.4258 5.94642 10.5207 6.4525 10.5523C9.14106 10.837 11.3868 10.3942 11.4817 9.50851C11.4817 9.41362 11.4501 9.2871 11.3868 9.16058Z" fill="#265B91"/>
<path d="M4.01708 9.41361C2.91003 9.06568 2.11927 8.62286 1.86623 8.14841C1.80297 8.2433 1.77134 8.33819 1.73971 8.43308C1.67645 9.00242 2.53046 9.60339 3.89056 10.0462L4.01708 9.41361Z" fill="#265B91"/>
<path d="M4.23846 8.1484C3.16303 7.80047 2.40391 7.35765 2.15087 6.91483C2.08761 7.00972 2.05598 7.10461 2.02435 7.1995C1.96109 7.76884 2.8151 8.36981 4.14357 8.78101L4.23846 8.1484Z" fill="#265B91"/>
<path d="M11.6399 7.89537C11.1338 8.59123 9.10949 8.90754 6.73723 8.65449C6.23115 8.59123 5.75669 8.52797 5.31387 8.43308L5.21898 9.06569C5.69343 9.16058 6.19951 9.25547 6.7056 9.31873C9.39416 9.6034 11.6399 9.16058 11.7348 8.27493C11.7348 8.14841 11.7032 8.02189 11.6399 7.89537Z" fill="#265B91"/>
<path d="M4.42814 6.8832C3.38434 6.53527 2.62522 6.09245 2.40381 5.64963C2.34055 5.74452 2.30892 5.83941 2.27729 5.9343C2.21403 6.50364 3.03641 7.07299 4.33325 7.51581L4.42814 6.8832Z" fill="#265B91"/>
<path d="M11.893 6.66179C11.3869 7.35765 9.36255 7.67395 6.99029 7.42091C6.45258 7.35765 5.97813 7.29439 5.50367 7.16787L5.40878 7.80048C5.88324 7.89537 6.42095 7.99026 6.95866 8.05352C9.64722 8.33819 11.893 7.89537 11.9879 7.00972C11.9879 6.91483 11.9562 6.78831 11.893 6.66179Z" fill="#265B91"/>
<path d="M8.7931 1.25304C8.50843 1.88564 8.35028 2.45498 8.28702 2.89781L8.88799 2.96107C8.98288 2.51824 9.14103 2.01216 9.39407 1.47445" fill="#265B91"/>
<path d="M7.6544 1C7.36973 1.69586 7.21158 2.29684 7.17995 2.77129L7.74929 2.83455C7.81255 2.3601 8.00233 1.75912 8.287 1.12652" fill="#265B91"/>
<path d="M6.4209 1.03163C6.16785 1.69586 6.07296 2.26521 6.16785 2.6764L6.70557 2.73966C6.70557 2.29684 6.86372 1.69586 7.14839 1" fill="#265B91"/>
<path d="M6.10452 16.6569C6.00963 15.9927 5.978 15.3917 6.07289 14.9489L6.67386 15.0438C6.64223 15.4866 6.67386 16.0243 6.76875 16.5937" fill="#265B91"/>
<path d="M4.96583 16.5937C4.87094 15.8662 4.87094 15.2336 4.99746 14.7591L5.56681 14.854C5.50355 15.3285 5.53518 15.9611 5.63007 16.6569" fill="#265B91"/>
<path d="M3.7639 16.2458C3.70064 15.5183 3.7639 14.9489 3.95368 14.601L4.49139 14.6959C4.36487 15.1387 4.36487 15.7397 4.45976 16.4672" fill="#265B91"/>
<path d="M11.3553 6.2506C10.7859 6.2506 10.3115 6.72505 10.3115 7.29439V18.618H12.3674C12.3674 18.618 12.3991 18.618 12.3991 18.5864V7.29439C12.3991 6.72505 11.9246 6.2506 11.3553 6.2506Z" fill="#265B91"/>
<path d="M1.58151 13.9367V18.6496H3.63747C3.63747 18.6496 3.6691 18.6496 3.6691 18.618V16.1192L2.94161 15.7397C2.7202 15.6131 2.53042 15.4234 2.15086 15.0122L1.58151 13.9367Z" fill="#265B91"/>
<path d="M1.61316 18.0486H12.3674V18.6812H1.61316V18.0486Z" fill="#265B91"/>
<path d="M6.00973 23.837H7.52798C7.6545 23.837 7.78102 23.9319 7.78102 24.09V26.4306C7.78102 26.4939 7.81265 26.5572 7.87591 26.6204C8.41363 27.0632 9.17275 27.6326 10.1849 28.0754C11.1971 28.5182 12.1144 28.7396 12.7786 28.8029C12.9051 28.8345 13 28.9294 13 29.0559V29.7518C13 29.8783 12.9051 30.0048 12.747 30.0048H0.253042C0.126522 30.0048 0 29.91 0 29.7518V29.0243C0 28.8978 0.0948908 28.8029 0.221411 28.7713C0.948905 28.6764 1.86618 28.455 2.87835 28.0754C4.08029 27.6326 4.99757 27.0632 5.6618 26.5572C5.72506 26.5255 5.75669 26.4306 5.75669 26.3674C5.75669 25.6082 5.75669 24.8175 5.75669 24.0584C5.75669 23.9319 5.88321 23.837 6.00973 23.837Z" fill="#265B91"/>
<path d="M6.32602 18.6496H7.18003V23.837H6.32602V18.6496Z" fill="#265B91"/>
</svg>
